<svg width="11" height="19" viewBox="0 0 11 19" fill="none" xmlns="http://www.w3.org/2000/svg">
<path d="M7.23529 18.9956C5.66666 18.9956 4.21079 18.987 2.75491 19C2.28432 19.0043 2.33824 18.728 2.33824 18.4689C2.33824 16.237 2.34314 14.0051 2.34314 11.7731C2.34314 11.0349 2.34314 10.2923 2.34314 9.50231C1.53922 9.50231 0.789216 9.50231 0 9.50231C0 8.41871 0 7.3826 0 6.27311C0.745098 6.27311 1.5098 6.27311 2.34804 6.27311C2.34804 5.38378 2.38726 4.56785 2.34314 3.76055C2.20588 1.33002 4.21569 0.0391993 6.53922 0.00897957C7.9902 -0.00828888 9.44608 0.00466252 10.9412 0.00466252C10.9412 1.05804 10.9412 2.11141 10.9412 3.2684C10.2647 3.2684 9.57843 3.2684 8.89706 3.2684C7.52451 3.2684 7.22549 3.53606 7.22059 4.74917C7.22059 5.22837 7.22059 5.70757 7.22059 6.23857C8.5 6.23857 9.71569 6.23857 11 6.23857C10.8431 7.33943 10.6961 8.37554 10.5392 9.46345C9.44118 9.46345 8.37255 9.46345 7.23529 9.46345C7.23529 12.6452 7.23529 15.7794 7.23529 18.9956Z" fill="white"/>
</svg>
