<svg width="19" height="19" viewBox="0 0 19 19" fill="none" xmlns="http://www.w3.org/2000/svg">
<path d="M9.47565 18.966C7.92975 18.966 6.37825 19.0219 4.83234 18.9548C2.34546 18.8484 0.149829 16.6534 0.0490096 14.1617C-0.0294057 12.3195 0.00980191 10.4661 0.00980191 8.62391C0.00980191 7.35285 -0.0182036 6.08739 0.0434085 4.82193C0.161031 2.347 2.34546 0.157649 4.81554 0.0400619C6.1262 -0.0215313 7.44805 0.012065 8.75871 0.0064656C10.3942 0.000866227 12.0241 -0.00473315 13.6597 0.0064656C15.5024 0.0176644 16.9755 0.77358 18.0509 2.27421C18.7119 3.19811 18.9975 4.24519 18.9975 5.37627C18.9975 8.11996 19.0031 10.8637 18.9975 13.6018C18.9863 16.2335 17.334 18.3388 14.8079 18.854C14.0573 19.0052 13.2676 18.9716 12.4946 18.9884C11.4864 19.0107 10.4782 18.994 9.47005 18.994C9.47565 18.9828 9.47565 18.9716 9.47565 18.966ZM9.52606 4.23399C6.60229 4.2284 4.24423 6.55774 4.23303 9.46941C4.22182 12.4035 6.56308 14.7608 9.49245 14.7664C12.4106 14.772 14.7631 12.4259 14.7687 9.51421C14.7743 6.59133 12.433 4.23399 9.52606 4.23399ZM15.8217 2.11743C15.2504 2.12303 14.7687 2.61018 14.7743 3.17571C14.7799 3.74685 15.2616 4.2284 15.8273 4.2284C16.4042 4.23399 16.8971 3.73005 16.8859 3.15332C16.8803 2.57658 16.393 2.11183 15.8217 2.11743Z" fill="#1C1C1C"/>
<path d="M6.34065 9.45826C6.37986 7.69446 7.81934 6.29462 9.55007 6.33381C11.3144 6.37861 12.7147 7.81765 12.6699 9.54785C12.6251 11.3061 11.18 12.7003 9.44365 12.6611C7.70171 12.6163 6.30144 11.1773 6.34065 9.45826Z" fill="#1C1C1C"/>
</svg>
