<svg width="150" height="131" viewBox="0 0 150 131" fill="none" xmlns="http://www.w3.org/2000/svg">
<path d="M77.7967 0L71.6484 2.20551L122.899 89.9913L94.5231 88.5485L124.023 92.3944L129.828 89.5328L77.7967 0Z" fill="white"/>
<path d="M73.1466 24.0237L39.3769 79.1695L25.8125 79.9634L38.9874 81.5309L44.7347 79.1978L75.0178 27.4139L73.1466 24.0237Z" fill="white"/>
<path d="M73.6925 52.0938L61.9688 74.0395L75.621 75.8258L70.4847 71.8157L67.3915 71.6152L75.8883 55.7757L73.6925 52.0938Z" fill="white"/>
<path d="M104.645 77.6121L77.2446 30.6767L73.5977 32.6817L100.749 79.4166L104.645 77.6121Z" fill="white"/>
<path d="M74.2642 60.7335L88.3109 86.0044L45.2031 82.3876L89.1194 87.9652L93.1482 86.4159L77.8157 59.2389L74.2642 60.7335Z" fill="white"/>
<path d="M71.6577 2.20551L28.3906 76.6643L73.3862 4.55653L72.6888 2.75233L71.6577 2.20551Z" fill="white"/>
<path d="M131.191 109.565L135.106 107.705L147.498 108.799L147.326 122.05L149.999 122.324V129.123L146.123 131L146.104 124.256L143.526 124.001L143.679 110.622L131.191 109.565Z" fill="white"/>
<path d="M134.383 112.791L138.336 113.137V115.142C138.336 115.142 138.259 118.569 137.801 119.735C137.343 120.902 137.037 121.175 137.037 121.175L133.199 123.016C133.199 123.016 134.268 122.451 134.364 118.077C134.479 113.702 134.383 112.791 134.383 112.791Z" fill="white"/>
<path d="M128.121 122.634L129.782 122.779C129.782 122.779 130.565 122.123 130.68 121.394L128.121 122.634Z" fill="white"/>
<path d="M131.039 125.878V129.688L134.858 127.847V126.206L131.039 125.878Z" fill="white"/>
<path d="M140.203 123.581L133.215 123.016L137.034 121.175L140.299 121.376V123.581H140.203Z" fill="white"/>
<path d="M101.676 110.713L105.571 108.908L116.015 109.82V122.378L112.082 124.256L112.139 111.588L101.676 110.713Z" fill="white"/>
<path d="M104.754 113.866L108.573 114.213V116.181C108.573 116.181 108.631 117.949 108.153 119.079C107.676 120.209 107.218 120.738 105.308 121.668C103.399 122.597 102.73 122.943 102.73 122.943C102.73 122.943 104.315 122.433 104.544 120.009C104.774 117.603 104.754 113.866 104.754 113.866Z" fill="white"/>
<path d="M98.9648 120.319C98.9648 120.319 100.301 120.61 100.798 120.155C101.294 119.699 101.428 119.134 101.428 119.134L98.9648 120.319Z" fill="white"/>
<path d="M90.9805 109.674L94.8566 107.888L96.4414 108.015L96.3459 120.738L92.4889 122.561L92.6226 109.856L90.9805 109.674Z" fill="white"/>
<path d="M82.2773 121.759L89.5713 114.978V116.691L86.0961 119.954L82.2773 121.759Z" fill="white"/>
<path d="M83.611 116.473L87.4871 112.937V107.396L84.4703 107.14L80.6133 108.945L83.6492 109.164L83.611 116.473Z" fill="white"/>
<path d="M58.793 106.995L62.6881 105.135L64.2348 105.263L68.6455 111.314L65.8578 114.632L60.416 107.159L58.793 106.995Z" fill="white"/>
<path d="M71.4688 108.088L75.3067 106.229L76.8724 106.338L73.0345 108.198L71.4688 108.088Z" fill="white"/>
<path d="M61.6133 119.918L65.1839 118.113L61.7278 113.247L61.6133 119.918Z" fill="white"/>
<path d="M66.3828 118.332L70.0107 116.655V113.994L66.3828 118.332Z" fill="white"/>
<path d="M39.2383 105.391L43.0953 103.513L46.093 103.787V109.364L42.1979 112.955L42.236 105.591L39.2383 105.391Z" fill="white"/>
<path d="M49.6055 106.156L53.3861 104.315L55.0282 104.461L54.9327 117.184L51.0566 119.006L51.1903 106.302L49.6055 106.156Z" fill="white"/>
<path d="M40.8516 118.204L48.1264 111.406V113.192L44.6895 116.4L40.8516 118.204Z" fill="white"/>
<path d="M19.4648 103.659L23.3027 101.836L26.396 102.11V103.039L23.8183 104.242C23.8183 104.242 23.2264 104.461 23.0163 104.661C22.8063 104.862 22.539 105.026 22.539 105.026V103.896L19.4648 103.659Z" fill="white"/>
<path d="M22.4835 108.106C22.4835 108.106 23.19 107.068 24.4693 106.849C25.7677 106.612 26.3405 106.903 26.3405 106.903L26.3023 110.458C26.3023 110.458 26.7606 111.369 27.467 111.77C28.1735 112.171 28.7463 112.299 28.7463 112.299C28.7463 112.299 28.1926 114.121 26.2832 114.213C24.3738 114.304 23.1709 113.666 22.4453 112.281L22.4835 108.106Z" fill="white"/>
<path d="M22.4453 115.306V120.592L26.3023 118.733V117.129C26.3023 117.129 25.3667 117.184 24.0492 116.564C22.7317 115.926 22.4453 115.306 22.4453 115.306Z" fill="white"/>
<path d="M0 98.209L3.87609 96.3498L17.471 97.571V100.615L13.5759 102.474V99.412L0 98.209Z" fill="white"/>
<path d="M8.46135 102.037L12.2611 102.31L12.1847 113.483L8.30859 115.306L8.46135 102.037Z" fill="white"/>
<path d="M72.9805 120.866L73.0377 108.198L76.8756 106.338L76.7229 119.152L72.9805 120.866Z" fill="white"/>
<path d="M22.5312 105.044C22.5312 105.044 25.0517 103.112 28.7368 104.607C32.4029 106.101 32.2119 111.059 32.2119 111.059C32.2119 111.059 32.5365 114.504 29.7488 116.363L33.0902 114.796C33.0902 114.796 35.5534 113.994 35.9925 110.184C36.4126 106.375 34.8851 103.185 30.9708 102.255C30.9708 102.255 29.3096 101.526 26.4073 103.021C23.505 104.516 22.5312 105.044 22.5312 105.044Z" fill="white"/>
<path d="M0 98.209V101.383L4.77318 101.952V115.052V115.18L8.42047 115.252L8.35306 115.052L5.25086 114.996L5.23176 101.581L0.765658 101.027V98.209H0Z" fill="white"/>
<path d="M19.4787 103.659L19.2305 120.592H22.4574L22.4955 120.301H19.9551L20.2886 103.661L19.4787 103.659Z" fill="white"/>
<path d="M39.2383 105.391V117.949V118.113H40.9567L41.0904 118.022L41.3609 117.692H39.9771V105.37L39.2383 105.391Z" fill="white"/>
<path d="M58.8902 106.995L58.6992 119.772V119.845L61.6206 119.918L61.6588 119.808L61.6206 119.681L59.6688 119.609V107.078L58.8902 106.995Z" fill="white"/>
<path d="M70.0116 116.309V120.647H73.1048L72.9712 120.866H69.332V116.309H70.0116Z" fill="white"/>
<path d="M80.6028 108.945L80.4883 121.759H82.264L82.6077 121.595H81.0776L81.2318 108.945H80.6028Z" fill="white"/>
<path d="M89.5762 116.691L89.4999 122.196L92.6695 122.269L92.4976 122.561L88.9062 122.456V116.761L89.5762 116.691Z" fill="white"/>
<path d="M99.2103 120.319H98.9648V123.162H99.2103V120.319Z" fill="white"/>
<path d="M103.452 122.488C103.452 122.488 102.822 123.49 98.9648 123.162L99.0985 122.962C99.0794 122.944 101.275 123.363 103.452 122.488Z" fill="white"/>
<path d="M101.685 110.713L101.436 119.134L100.84 120.178C100.84 120.178 101.92 119.805 102.035 119.039L102.313 110.713L101.685 110.713Z" fill="white"/>
<path d="M131.658 109.565L131.258 121.317C131.258 121.317 130.904 122.306 129.758 122.761L129.605 122.47L130.656 121.376L130.942 109.565L135.105 107.705L131.658 109.565Z" fill="white"/>
<path d="M128.121 122.634V129.688H131.042L131.1 129.378L128.874 129.291V122.457L128.121 122.634Z" fill="white"/>
<path d="M131.857 126.443L142.597 127.583V130.617V131L146.123 131L146.219 130.69L142.954 130.617L142.992 126.771L131.039 125.568L131.192 126.534L131.857 126.443Z" fill="white"/>
<path d="M112.078 124.256L108.832 124.019V123.745L112.269 124.001L112.078 124.256Z" fill="white"/>
<path d="M108.59 114.213L108.838 114.231V114.267V124.019L109.442 123.929V114.231" fill="white"/>
<path d="M140.303 121.376V113.265L137.688 113.083L138.069 113.319L140.093 113.502L139.979 122.069L140.303 121.376Z" fill="white"/>
</svg>
