<svg width="137" height="119" viewBox="0 0 137 119" fill="none" xmlns="http://www.w3.org/2000/svg">
<path d="M70.6671 0L65.082 2.00348L111.638 81.7478L85.8613 80.4371L112.659 83.9308L117.932 81.3313L70.6671 0Z" fill="#1C1C1C"/>
<path d="M66.4435 21.823L35.7672 71.9174L23.4453 72.6385L35.4133 74.0624L40.6342 71.9431L68.1433 24.9027L66.4435 21.823Z" fill="#1C1C1C"/>
<path d="M66.9389 47.3218L56.2891 67.2572L68.6907 68.8799L64.0249 65.2372L61.215 65.0551L68.9335 50.6665L66.9389 47.3218Z" fill="#1C1C1C"/>
<path d="M95.0545 70.5026L70.1645 27.8666L66.8516 29.6879L91.5161 72.1418L95.0545 70.5026Z" fill="#1C1C1C"/>
<path d="M67.4576 55.1702L80.2175 78.1261L41.0586 74.8407L80.952 79.9073L84.6118 78.4999L70.6838 53.8124L67.4576 55.1702Z" fill="#1C1C1C"/>
<path d="M65.0927 2.00348L25.7891 69.6416L66.6629 4.13914L66.0294 2.50021L65.0927 2.00348Z" fill="#1C1C1C"/>
<path d="M119.176 99.5282L122.731 97.8393L133.988 98.8328L133.832 110.87L136.261 111.119V117.295L132.74 119L132.722 112.874L130.381 112.642L130.519 100.489L119.176 99.5282Z" fill="#1C1C1C"/>
<path d="M122.071 102.459L125.662 102.773V104.595C125.662 104.595 125.593 107.708 125.176 108.767C124.76 109.827 124.482 110.075 124.482 110.075L120.996 111.748C120.996 111.748 121.967 111.234 122.054 107.261C122.158 103.287 122.071 102.459 122.071 102.459Z" fill="#1C1C1C"/>
<path d="M116.387 111.4L117.896 111.532C117.896 111.532 118.607 110.936 118.711 110.274L116.387 111.4Z" fill="#1C1C1C"/>
<path d="M119.035 114.347V117.808L122.504 116.135V114.645L119.035 114.347Z" fill="#1C1C1C"/>
<path d="M127.36 112.261L121.012 111.748L124.481 110.075L127.447 110.257V112.261H127.36Z" fill="#1C1C1C"/>
<path d="M92.3633 100.571L95.9017 98.9321L105.389 99.76V111.168L101.816 112.874L101.868 101.366L92.3633 100.571Z" fill="#1C1C1C"/>
<path d="M95.1589 103.436L98.6279 103.75V105.539C98.6279 105.539 98.6799 107.145 98.2463 108.171C97.8127 109.198 97.3964 109.678 95.6619 110.522C93.9274 111.367 93.3203 111.681 93.3203 111.681C93.3203 111.681 94.7599 111.218 94.9681 109.016C95.1762 106.83 95.1589 103.436 95.1589 103.436Z" fill="#1C1C1C"/>
<path d="M89.8984 109.297C89.8984 109.297 91.1126 109.562 91.5636 109.148C92.0145 108.734 92.1359 108.221 92.1359 108.221L89.8984 109.297Z" fill="#1C1C1C"/>
<path d="M82.6445 99.6275L86.1656 98.0049L87.6052 98.1208L87.5185 109.678L84.0148 111.334L84.1362 99.7931L82.6445 99.6275Z" fill="#1C1C1C"/>
<path d="M74.7422 110.605L81.368 104.446V106.002L78.2112 108.966L74.7422 110.605Z" fill="#1C1C1C"/>
<path d="M75.9536 105.804L79.4747 102.591V97.5578L76.7341 97.326L73.2305 98.9652L75.9883 99.1639L75.9536 105.804Z" fill="#1C1C1C"/>
<path d="M53.4062 97.1935L56.9446 95.5046L58.3496 95.6205L62.3562 101.118L59.8239 104.131L54.8806 97.3425L53.4062 97.1935Z" fill="#1C1C1C"/>
<path d="M64.9219 98.187L68.4082 96.4981L69.8305 96.5975L66.3442 98.2863L64.9219 98.187Z" fill="#1C1C1C"/>
<path d="M55.9688 108.933L59.2123 107.294L56.0728 102.873L55.9688 108.933Z" fill="#1C1C1C"/>
<path d="M60.3008 107.492L63.5963 105.969V103.552L60.3008 107.492Z" fill="#1C1C1C"/>
<path d="M35.6445 95.7364L39.1482 94.031L41.8714 94.2793V99.346L38.333 102.608L38.3677 95.9185L35.6445 95.7364Z" fill="#1C1C1C"/>
<path d="M45.0625 96.4319L48.4968 94.7596L49.9885 94.8921L49.9017 106.449L46.3807 108.105L46.5021 96.5644L45.0625 96.4319Z" fill="#1C1C1C"/>
<path d="M37.1094 107.376L43.7178 101.2V102.823L40.5957 105.737L37.1094 107.376Z" fill="#1C1C1C"/>
<path d="M17.6836 94.1635L21.1699 92.5077L23.9798 92.7561V93.6005L21.6382 94.6933C21.6382 94.6933 21.1005 94.892 20.9098 95.0742C20.719 95.2563 20.4761 95.4053 20.4761 95.4053V94.3787L17.6836 94.1635Z" fill="#1C1C1C"/>
<path d="M20.4253 98.2036C20.4253 98.2036 21.0671 97.2598 22.2292 97.0611C23.4086 96.8459 23.929 97.1108 23.929 97.1108L23.8943 100.34C23.8943 100.34 24.3106 101.167 24.9523 101.532C25.5941 101.896 26.1145 102.012 26.1145 102.012C26.1145 102.012 25.6115 103.668 23.877 103.75C22.1425 103.833 21.0497 103.254 20.3906 101.995L20.4253 98.2036Z" fill="#1C1C1C"/>
<path d="M20.3906 104.744V109.546L23.8943 107.857V106.4C23.8943 106.4 23.0444 106.449 21.8476 105.886C20.6508 105.307 20.3906 104.744 20.3906 104.744Z" fill="#1C1C1C"/>
<path d="M0 89.2127L3.52103 87.5238L15.8706 88.6332V91.3983L12.3323 93.0872V90.3055L0 89.2127Z" fill="#1C1C1C"/>
<path d="M7.68563 92.6898L11.1373 92.9382L11.0679 103.088L7.54688 104.744L7.68563 92.6898Z" fill="#1C1C1C"/>
<path d="M66.2969 109.794L66.3489 98.2863L69.8352 96.5974L69.6965 108.237L66.2969 109.794Z" fill="#1C1C1C"/>
<path d="M20.4688 95.4218C20.4688 95.4218 22.7583 93.6667 26.1059 95.0245C29.4361 96.3822 29.2626 100.886 29.2626 100.886C29.2626 100.886 29.5575 104.015 27.0251 105.704L30.0605 104.28C30.0605 104.28 32.298 103.552 32.6969 100.091C33.0785 96.6306 31.6909 93.733 28.1352 92.8885C28.1352 92.8885 26.6262 92.2262 23.9898 93.5839C21.3533 94.9417 20.4688 95.4218 20.4688 95.4218Z" fill="#1C1C1C"/>
<path d="M0 89.2127V92.0957L4.33594 92.613V104.513V104.629L7.64913 104.694L7.58789 104.513L4.76986 104.462L4.75252 92.2759L0.695522 91.7727V89.2127H0Z" fill="#1C1C1C"/>
<path d="M17.6942 94.1635L17.4688 109.546H20.4L20.4347 109.281H18.127L18.4299 94.1652L17.6942 94.1635Z" fill="#1C1C1C"/>
<path d="M35.6445 95.7364V107.145V107.294H37.2056L37.327 107.211L37.5727 106.911H36.3157V95.7174L35.6445 95.7364Z" fill="#1C1C1C"/>
<path d="M53.4938 97.1935L53.3203 108.8V108.867L55.9741 108.933L56.0088 108.834L55.9741 108.718L54.201 108.652V97.2695L53.4938 97.1935Z" fill="#1C1C1C"/>
<path d="M63.5978 105.654V109.595H66.4077L66.2862 109.794H62.9805V105.654H63.5978Z" fill="#1C1C1C"/>
<path d="M73.2213 98.9652L73.1172 110.605H74.7303L75.0425 110.456H73.6525L73.7926 98.9652H73.2213Z" fill="#1C1C1C"/>
<path d="M81.3703 106.002L81.301 111.003L84.1802 111.069L84.0241 111.334L80.7617 111.239V106.065L81.3703 106.002Z" fill="#1C1C1C"/>
<path d="M90.1214 109.297H89.8984V111.88H90.1214V109.297Z" fill="#1C1C1C"/>
<path d="M93.9745 111.268C93.9745 111.268 93.4021 112.178 89.8984 111.88L90.0199 111.698C90.0025 111.682 91.9972 112.062 93.9745 111.268Z" fill="#1C1C1C"/>
<path d="M92.3693 100.571L92.1435 108.221L91.6016 109.17C91.6016 109.17 92.5828 108.83 92.687 108.135L92.9398 100.571L92.3693 100.571Z" fill="#1C1C1C"/>
<path d="M119.599 99.5282L119.235 110.204C119.235 110.204 118.914 111.102 117.873 111.516L117.734 111.251L118.688 110.258L118.949 99.5282L122.73 97.8393L119.599 99.5282Z" fill="#1C1C1C"/>
<path d="M116.387 111.4V117.808H119.04L119.093 117.526L117.071 117.448V111.239L116.387 111.4Z" fill="#1C1C1C"/>
<path d="M119.778 114.861L129.534 115.896V118.652V119L132.738 119L132.824 118.718L129.858 118.652L129.893 115.159L119.035 114.066L119.174 114.943L119.778 114.861Z" fill="#1C1C1C"/>
<path d="M101.812 112.874L98.8633 112.658V112.41L101.985 112.642L101.812 112.874Z" fill="#1C1C1C"/>
<path d="M98.6445 103.75L98.8703 103.767V103.8V112.658L99.4188 112.577V103.767" fill="#1C1C1C"/>
<path d="M127.45 110.258V102.889L125.074 102.724L125.421 102.939L127.26 103.105L127.156 110.887L127.45 110.258Z" fill="#1C1C1C"/>
</svg>
