<svg width="29" height="31" viewBox="0 0 29 31" fill="none" xmlns="http://www.w3.org/2000/svg">
<path d="M28.563 0.418945H3.07812V28.0676H28.563V0.418945Z" fill="#2F2F2F"/>
<path d="M6.15388 0.418945H3.07812V28.0676H6.15388V0.418945Z" fill="#2F2F2F"/>
<path d="M17.1364 0.418945H14.5V28.0676H17.1364V0.418945Z" fill="#2F2F2F"/>
<path d="M28.1243 0.418945H22.8516V28.0676H28.1243V0.418945Z" fill="#2F2F2F"/>
<path d="M23.4696 0H22.0901H17.9455H16.566H12.4213H11.0419H6.89723H5.52411H0V31H5.52411H6.90356H11.0482H12.4277H16.5723H17.9518H22.0964H23.4759H29V0H23.4696ZM27.6142 21.2074C27.3295 21.1304 27.0131 20.9943 26.7537 20.7575C26.4056 20.4318 26.2348 19.9819 26.2348 19.378V14.2093C26.2348 13.4041 26.5512 12.8594 27.1966 12.5456C27.3358 12.4746 27.4813 12.4272 27.6142 12.3858V21.2074ZM17.9455 1.29068H22.0901V14.8547H17.9455V1.29068ZM17.9455 16.1453H19.3249V18.7326C19.3249 19.3484 19.1477 19.822 18.7997 20.1417C18.5466 20.3726 18.2239 20.5088 17.9455 20.5798V16.1453ZM6.90356 1.29068H11.0482V14.8547H9.66878V11.622C9.66878 11.2668 9.35872 10.9767 8.97905 10.9767C8.59939 10.9767 8.28933 11.2668 8.28933 11.622V14.8547H6.90988V1.29068H6.90356ZM2.75889 1.29068V6.4534C2.75889 7.06914 2.58172 7.54278 2.23369 7.86249C1.98058 8.09931 1.65787 8.22956 1.37945 8.30061V1.29068H2.75889ZM5.52411 29.7093H4.14467V25.784C4.14467 25.4288 3.83461 25.1387 3.45494 25.1387C3.07528 25.1387 2.76522 25.4288 2.76522 25.784V29.7093H1.37945V9.62681C1.89832 9.53801 2.61335 9.32487 3.18918 8.80386C3.82195 8.22956 4.13834 7.44213 4.13834 6.45932V1.29068H5.51778V14.8547V16.1453V29.7093H5.52411ZM11.0419 29.7093H6.89723V16.1453H11.0419V29.7093ZM16.566 29.7093H12.4213V16.1453V14.8547V1.29068H16.566V14.8547V16.1453V29.7093ZM22.0901 29.7093H17.9455V21.9001C18.4643 21.8113 19.1794 21.5982 19.7552 21.0772C20.388 20.5029 20.7043 19.7154 20.7043 18.7326V16.1453H22.0838V29.7093H22.0901ZM26.2285 29.7093V27.128C26.2285 26.7727 25.9184 26.4826 25.5387 26.4826C25.1591 26.4826 24.849 26.7727 24.849 27.128V29.7093H23.4696V16.1453V14.8547V1.29068H24.849V5.216C24.849 5.57124 25.1591 5.86134 25.5387 5.86134C25.9184 5.86134 26.2285 5.57124 26.2285 5.216V1.29068H27.6079V11.0537C27.3168 11.107 26.9688 11.2017 26.6081 11.3734C25.4691 11.9062 24.8427 12.9127 24.8427 14.2093V19.378C24.8427 20.3312 25.1591 21.1008 25.7729 21.6751C26.355 22.2139 27.0764 22.4389 27.6079 22.5336V29.7093H26.2285Z" fill="white"/>
<path d="M14.4944 7.10468C14.1147 7.10468 13.8047 7.39478 13.8047 7.75001V24.5407C13.8047 24.8959 14.1147 25.186 14.4944 25.186C14.8741 25.186 15.1841 24.8959 15.1841 24.5407V7.75001C15.1841 7.39478 14.8741 7.10468 14.4944 7.10468Z" fill="white"/>
</svg>
