<svg width="31" height="35" viewBox="0 0 31 35" fill="none" xmlns="http://www.w3.org/2000/svg">
<path d="M8.30078 16.3383H20.4807V20.4228H8.30078V16.3383Z" fill="#2F2F2F"/>
<path d="M5.53371 19.4444H0.367188C0.367188 22.0221 1.78992 24.1111 3.54554 24.1111H5.53371V19.4444Z" fill="#2F2F2F"/>
<path d="M8.65916 33.4445L10.9548 28.7424C11.7276 27.1615 10.773 25.1667 9.23307 25.1667H7.75V18.6667H28.0471V22.2153C25.5866 22.2153 23.5922 24.5968 23.5922 27.5347V33.4445H8.65916Z" fill="#2F2F2F"/>
<path d="M11.629 10.4993H10.5235C9.91355 10.4993 9.41797 9.97704 9.41797 9.33423C9.41797 8.69141 9.91355 8.16912 10.5235 8.16912H17.1694L28.7966 7.66023C29.6734 7.62005 30.4168 8.34322 30.4549 9.26727C30.4549 9.28735 30.4549 9.31414 30.4549 9.33423C30.4549 10.2583 29.7433 11.0149 28.8601 11.0149C28.8411 11.0149 28.8157 11.0149 28.7966 11.0149L17.1694 10.506H11.629V10.4993Z" fill="#2F2F2F"/>
<path d="M16.6102 14.0013H12.1817L11.6289 13.4188V5.24967L12.1817 4.66711H16.6102L17.1629 5.24967V13.4188L16.6102 14.0013Z" fill="#2F2F2F"/>
<path d="M8.48828 32.2778H24.7259V34.6111H8.48828V32.2778Z" fill="#2F2F2F"/>
<path d="M28.2293 18.0859H21.0369V16.3383C21.0369 16.0169 20.7891 15.7557 20.4842 15.7557H8.30422C7.99925 15.7557 7.75145 16.0169 7.75145 16.3383V18.0859H5.53403C5.22905 18.0859 4.98126 18.3471 4.98126 18.6685H0.552768C0.247792 18.6685 0 18.9296 0 19.2511C0 22.1504 2.23013 24.5007 4.98126 24.5007V25.0833C4.98126 25.4047 5.22905 25.6658 5.53403 25.6658H7.19233C8.11361 25.6658 8.86334 26.4559 8.86334 27.4269C8.86334 27.7416 8.7871 28.0429 8.63461 28.3174L6.87465 31.498H6.0868C5.78182 31.498 5.53403 31.7592 5.53403 32.0806V34.4175C5.53403 34.7389 5.78182 35.0001 6.0868 35.0001H24.9063C25.2113 35.0001 25.4591 34.7389 25.4591 34.4175V32.0806C25.4591 31.7592 25.2113 31.498 24.9063 31.498H23.8008V27.4135C23.8008 24.8355 25.7831 22.7464 28.2293 22.7464C28.5342 22.7464 28.782 22.4852 28.782 22.1638V18.6618C28.7884 18.3471 28.5406 18.0859 28.2293 18.0859ZM1.14366 19.8336H4.98126V23.3356C3.05611 23.3356 1.42322 21.8424 1.14366 19.8336ZM8.85699 16.9208H19.9314V18.0859H8.85699V16.9208ZM24.3599 33.8349H6.64592V32.6698H24.3599V33.8349ZM22.6952 27.4202V31.5047H8.15809L9.59401 28.9067C10.1023 28.0027 10.1023 26.8778 9.60037 25.9738C9.54318 25.8667 9.47965 25.7663 9.40976 25.6725H11.6272V24.5074H6.0868V19.2577H27.6765V21.5947H22.1425V22.7598H24.9127C23.5212 23.8512 22.6952 25.5855 22.6952 27.4202Z" fill="white"/>
<path d="M30.3396 7.70042C29.9203 7.27187 29.3484 7.04421 28.7639 7.07099L17.7149 7.55311V5.24968C17.7149 5.09567 17.6577 4.94836 17.5497 4.83453L16.9969 4.25198C16.8953 4.14484 16.7492 4.07788 16.603 4.07788H12.1745C12.0284 4.07788 11.8886 4.13814 11.7806 4.25198L11.2278 4.83453C11.1262 4.94166 11.0626 5.09567 11.0626 5.24968V7.58659H10.5099C9.59494 7.58659 8.85156 8.37002 8.85156 9.33424C8.85156 10.2985 9.59494 11.0819 10.5099 11.0819H11.0626V13.4188C11.0626 13.5728 11.1198 13.7201 11.2278 13.834L11.7806 14.4165C11.8823 14.5236 12.0284 14.5906 12.1745 14.5906H16.603C16.7492 14.5906 16.8889 14.5303 16.9969 14.4165L17.5497 13.834C17.6514 13.7268 17.7149 13.5728 17.7149 13.4188V11.1087L28.7639 11.5908C28.7957 11.5908 28.8274 11.5908 28.8592 11.5908C30.0473 11.5908 31.0067 10.573 31.0004 9.32755C31.0004 8.71821 30.759 8.12896 30.3396 7.70042ZM10.5162 9.9168C10.2112 9.9168 9.96345 9.65565 9.96345 9.33424C9.96345 9.01283 10.2112 8.75169 10.5162 8.75169H11.069V9.9168H10.5162ZM16.6094 13.1777L16.3806 13.4188H12.4096L12.1809 13.1777V5.49074L12.4096 5.24968H16.3806L16.6094 5.49074V13.1777ZM29.5772 10.1244C29.3739 10.3319 29.1007 10.4391 28.8147 10.4257L17.7213 9.93688V8.72491L28.8147 8.2361C29.3866 8.20931 29.8694 8.67803 29.8949 9.28737C29.9076 9.60208 29.7868 9.9101 29.5772 10.1244Z" fill="white"/>
<path d="M13.8359 0H14.9415V2.91946H13.8359V0Z" fill="white"/>
<path d="M6.27734 2.69181L7.23674 2.10925L9.75279 6.70941L8.79339 7.29196L6.27734 2.69181Z" fill="white"/>
<path d="M1.65234 9.25389L2.20511 8.2428L10.2425 13.1309L9.68971 14.142L1.65234 9.25389Z" fill="white"/>
<path d="M0 15.749H6.64592V16.9141H0V15.749Z" fill="white"/>
<path d="M22.1406 15.749H28.7865V16.9141H22.1406V15.749Z" fill="white"/>
<path d="M18.5469 13.1376L19.8684 12.334L20.4212 13.3451L19.0996 14.1487L18.5469 13.1376Z" fill="white"/>
<path d="M19.3438 6.12684L21.1037 2.90607L22.0631 3.48862L20.3032 6.7094L19.3438 6.12684Z" fill="white"/>
<path d="M10.2227 2.18956L11.2901 1.88824L11.6268 3.22075L10.5594 3.52207L10.2227 2.18956Z" fill="white"/>
<path d="M2.76172 13.6531L3.04763 12.5282L5.53826 13.2313L5.25235 14.3562L2.76172 13.6531Z" fill="white"/>
<path d="M23.1094 13.2647L26.5531 12.2938L26.839 13.4188L23.4016 14.3964L23.1094 13.2647Z" fill="white"/>
</svg>
