<svg width="37" height="35" viewBox="0 0 37 35" fill="none" xmlns="http://www.w3.org/2000/svg">
<path d="M12.4648 19.4753V32.1859C12.4648 32.858 12.9999 33.3996 13.6639 33.3996H14.8564C15.5204 33.3996 16.0554 32.858 16.0554 32.1859V23.1032H19.646V26.1308C19.646 27.4684 20.7161 28.5515 22.0376 28.5515V23.1032H25.6282V19.4688H22.0376L17.854 15.2341L16.0619 17.048L18.4535 19.4688L12.4648 19.4753Z" fill="#2F2F2F"/>
<path d="M28.0088 18.8685H25.6172V23.71H28.0088V18.8685Z" fill="#555160"/>
<path d="M22.6641 23.1033H25.6229V20.2388C24.714 21.2828 23.7277 22.2355 22.6641 23.1033Z" fill="#FFBC05"/>
<path d="M16.2964 10.7514L15.9483 17.1524L16.0515 17.0545H10.0693L2.89453 9.78567L9.12167 3.48907L16.2964 10.7514Z" fill="#2F2F2F"/>
<path d="M2.89337 9.78573L1.94576 8.82656C1.48162 8.35676 1.48162 7.58682 1.94576 7.11702L6.49685 2.60174C6.96099 2.13194 7.72165 2.13194 8.18579 2.60174L9.1334 3.56091L2.89337 9.78573Z" fill="#2F2F2F"/>
<path d="M4.31917 8.34381L2.89453 9.78583L10.0693 17.0481H16.0515L17.8435 15.2342V13.9031C17.6437 13.9096 17.4439 13.9161 17.244 13.9161C12.3706 13.9227 7.69704 11.913 4.31917 8.34381Z" fill="#2F2F2F"/>
<path d="M2.68708 6.36664L1.94576 7.11701C1.48162 7.58681 1.48162 8.35676 1.94576 8.82655L2.89337 9.78573L4.318 8.34371C3.73139 7.72383 3.18345 7.06481 2.68708 6.36664Z" fill="#2F2F2F"/>
<path d="M12.4688 32.1859C12.4688 32.858 13.0038 33.3996 13.6678 33.3996H14.8603C15.5243 33.3996 16.0593 32.858 16.0593 32.1859V23.6904C14.8732 23.9906 13.6807 24.2385 12.4688 24.4147V32.1859Z" fill="#2F2F2F"/>
<path d="M25.6211 20.2452V23.71H28.0127V18.8685H26.9297C26.4978 19.149 26.0659 19.4296 25.6211 19.6906V20.2452Z" fill="#2F2F2F"/>
<path d="M18.082 23.1032H19.642V26.1308C19.642 27.4684 20.7121 28.5515 22.0336 28.5515V23.1032H25.6242V19.6906C23.2455 21.1131 20.7186 22.2615 18.082 23.1032Z" fill="#2F2F2F"/>
<path d="M17.7486 9.01238L10.3742 1.53649L9.40022 0.549105C8.67802 -0.183035 7.5119 -0.183035 6.78969 0.549105L0.541652 6.88313C-0.180551 7.61527 -0.180551 8.79744 0.541652 9.52958L1.51563 10.517L8.89004 17.9929C9.00268 18.107 9.1617 18.1742 9.32734 18.1742H15.2176L16.45 19.4235H11.7855C11.4476 19.4235 11.1693 19.7057 11.1693 20.0482V33.1327C11.1693 34.1671 11.9975 35 13.0112 35H14.2436C15.264 35 16.0856 34.1604 16.0856 33.1327V24.4075H18.5437V26.8994C18.5437 28.619 19.9218 30.0161 21.618 30.0161C21.9559 30.0161 22.2342 29.734 22.2342 29.3914V24.4075H24.6924C24.6924 24.75 24.9706 25.0321 25.3085 25.0321H27.7667C28.1046 25.0321 28.3829 24.75 28.3829 24.4075V19.4235C28.3829 19.081 28.1046 18.7989 27.7667 18.7989H25.3085C24.9706 18.7989 24.6924 19.081 24.6924 19.4235H21.8764L17.9341 15.427V9.45569C17.9275 9.28777 17.8613 9.12657 17.7486 9.01238ZM1.40962 7.76304L7.66429 1.4223C7.90281 1.18049 8.29373 1.18049 8.53226 1.4223L9.06894 1.96637L1.9463 9.19374L1.40299 8.64967C1.16447 8.40114 1.16447 8.01156 1.40962 7.76304ZM2.81427 10.0736L9.93691 2.853L16.6951 9.70422V15.4203L15.211 16.9249H9.57249L2.81427 10.0736ZM27.1505 20.0482V23.7895H25.9181V20.0482H27.1505ZM21.618 20.6662H24.6924V23.1581H21.618C21.2801 23.1581 21.0018 23.4402 21.0018 23.7828V28.6593C20.2664 28.3973 19.7761 27.6853 19.7695 26.8994V23.7828C19.7695 23.4402 19.4912 23.1581 19.1533 23.1581H15.4627C15.1248 23.1581 14.8466 23.4402 14.8466 23.7828V33.1327C14.8466 33.4753 14.5683 33.7574 14.2304 33.7574H12.998C12.6601 33.7574 12.3818 33.4753 12.3818 33.1327V20.6662H17.9143C18.2522 20.6662 18.5305 20.3841 18.5305 20.0415C18.5305 19.8736 18.4642 19.7191 18.3516 19.5982L16.3307 17.5495L17.3047 16.5622L21.1741 20.4848C21.3 20.6057 21.4524 20.6662 21.618 20.6662Z" fill="white"/>
<path d="M36.1566 13.5229L29.3633 20.4097L30.2066 21.2646L36.9999 14.3778L36.1566 13.5229Z" fill="white"/>
<path d="M30.202 22.7068L29.3594 23.5624L36.1472 30.4546L36.9898 29.599L30.202 22.7068Z" fill="white"/>
<path d="M36.3645 21.3109H30.832V22.52H36.3645V21.3109Z" fill="white"/>
</svg>
